<?xml version="1.0" standalone="no"?>
<!DOCTYPE svg PUBLIC "-//W3C//DTD SVG 20010904//EN"
 "http://www.w3.org/TR/2001/REC-SVG-20010904/DTD/svg10.dtd">
<svg version="1.0" xmlns="http://www.w3.org/2000/svg"
 width="440.000000pt" height="440.000000pt" viewBox="0 0 440.000000 440.000000"
 preserveAspectRatio="xMidYMid meet">
<metadata>
Created by potrace 1.14, written by Peter Selinger 2001-2017
</metadata>
<g transform="translate(0.000000,440.000000) scale(0.100000,-0.100000)"
fill="#000000" stroke="none">
<path d="M1990 4160 c-19 -19 -20 -33 -20 -225 0 -192 1 -206 20 -225 19 -19
33 -20 225 -20 192 0 206 1 225 20 19 19 20 33 20 219 0 185 -1 200 -21 225
l-20 26 -205 0 c-191 0 -205 -1 -224 -20z"/>
<path d="M1374 3996 c-73 -34 -276 -154 -301 -178 -25 -23 -29 -57 -12 -91 27
-52 173 -284 192 -304 11 -13 30 -23 42 -23 21 0 324 167 357 197 30 27 21 63
-43 178 -77 139 -138 226 -165 236 -15 5 -37 0 -70 -15z"/>
<path d="M2980 4007 c-22 -12 -128 -178 -191 -301 -49 -95 -44 -101 191 -233
161 -90 161 -91 199 -56 39 37 201 322 201 355 0 35 -32 61 -183 147 -164 94
-187 103 -217 88z"/>
<path d="M616 3356 c-38 -41 -185 -296 -192 -336 -8 -38 13 -57 147 -136 219
-130 241 -136 283 -81 42 55 186 321 186 343 0 11 -10 30 -22 41 -43 40 -332
203 -359 203 -6 0 -26 -15 -43 -34z"/>
<path d="M3675 3346 c-123 -66 -238 -135 -262 -159 -40 -37 -38 -42 86 -257
87 -150 96 -160 135 -160 40 0 308 153 361 206 25 26 15 58 -72 210 -78 138
-128 204 -154 204 -8 0 -50 -20 -94 -44z"/>
<path d="M294 2456 c-23 -10 -33 -23 -38 -46 -8 -42 -6 -358 3 -390 5 -17 18
-29 41 -36 43 -14 354 -16 397 -3 45 14 53 51 53 239 0 187 -8 224 -52 239
-46 16 -365 14 -404 -3z"/>
<path d="M3723 2460 c-39 -16 -43 -41 -43 -243 0 -263 -22 -242 244 -242 194
0 207 1 226 21 20 19 21 31 20 224 0 192 -1 206 -20 225 -19 19 -34 20 -213
22 -105 1 -202 -2 -214 -7z"/>
<path d="M725 1647 c-134 -72 -279 -163 -292 -184 -13 -19 -12 -27 5 -65 22
-50 131 -244 169 -300 39 -58 63 -53 243 52 168 97 202 126 193 162 -10 37
-170 313 -199 342 -34 33 -46 33 -119 -7z"/>
<path d="M3591 1663 c-23 -20 -181 -290 -199 -341 -10 -28 -8 -35 11 -57 12
-14 92 -66 177 -115 205 -119 204 -120 282 10 32 52 78 136 104 186 39 76 45
94 35 112 -18 33 -335 222 -373 222 -9 0 -25 -8 -37 -17z"/>
<path d="M1246 1025 c-38 -41 -196 -327 -196 -355 0 -15 8 -34 18 -43 33 -30
336 -197 357 -197 12 0 33 12 46 28 46 49 199 321 199 352 0 32 -59 74 -268
189 -50 28 -101 51 -113 51 -11 0 -30 -11 -43 -25z"/>
<path d="M2965 964 c-181 -104 -209 -127 -201 -168 7 -33 155 -292 193 -337
14 -16 35 -29 47 -29 22 0 221 106 316 169 81 54 79 74 -39 271 -98 162 -112
180 -145 180 -12 0 -88 -39 -171 -86z"/>
<path d="M2028 752 c-53 -7 -58 -27 -58 -243 0 -266 -22 -244 245 -244 266 0
245 -20 245 235 0 195 -6 232 -37 245 -18 8 -344 14 -395 7z"/>
</g>
</svg>
